<?xml version="1.0" standalone="no"?>
<!DOCTYPE svg PUBLIC "-//W3C//DTD SVG 20010904//EN"
 "http://www.w3.org/TR/2001/REC-SVG-20010904/DTD/svg10.dtd">
<svg version="1.0" xmlns="http://www.w3.org/2000/svg"
 width="456.000000pt" height="437.000000pt" viewBox="0 0 456.000000 437.000000"
 preserveAspectRatio="xMidYMid meet">
<metadata>
Created by potrace 1.16, written by Peter Selinger 2001-2019
</metadata>
<g transform="translate(0.000000,437.000000) scale(0.100000,-0.100000)"
fill="#000000" stroke="none">
<path d="M1104 4186 c-51 -22 -54 -46 -54 -408 0 -416 -7 -398 145 -398 64 0
86 4 96 16 9 11 16 56 19 133 4 94 8 116 20 116 9 0 40 -48 77 -120 80 -154
123 -192 176 -152 14 9 79 109 175 266 4 8 14 11 20 7 8 -5 12 -42 12 -114 0
-159 -10 -152 209 -152 l179 0 18 28 c17 25 19 54 22 336 2 170 1 329 -3 353
-3 24 -17 56 -30 71 -23 26 -26 27 -133 27 -135 0 -126 7 -260 -193 -76 -112
-100 -142 -116 -140 -13 2 -53 51 -111 136 -112 162 -131 182 -186 193 -70 13
-240 10 -275 -5z"/>
<path d="M2443 3878 c-12 -6 -27 -24 -32 -41 -15 -40 -14 -411 0 -479 44 -212
232 -338 502 -338 51 0 115 6 142 14 128 34 235 117 280 218 33 73 46 208 39
398 -9 236 -12 240 -139 240 -78 0 -88 -2 -110 -25 l-25 -24 0 -233 c0 -256
-2 -264 -59 -288 -41 -17 -92 -6 -122 26 -24 25 -24 29 -29 266 -6 305 16 278
-239 277 -109 0 -195 -5 -208 -11z"/>
<path d="M975 3318 c-44 -25 -75 -90 -75 -156 0 -113 75 -263 135 -270 41 -5
55 19 55 97 0 45 7 81 21 111 29 64 35 129 15 168 -28 53 -102 78 -151 50z
m86 -51 c25 -19 30 -46 18 -90 -22 -83 -67 -118 -103 -81 -67 66 13 227 85
171z"/>
<path d="M2125 3268 c-52 -19 -86 -49 -131 -118 -48 -74 -150 -275 -220 -433
-35 -80 -55 -111 -92 -144 l-47 -42 -96 -1 c-113 0 -109 -2 -188 131 -50 87
-79 114 -133 130 -32 9 -95 -10 -110 -34 -14 -22 -8 -94 11 -138 42 -99 32
-176 -19 -149 -39 21 -57 50 -90 147 -18 51 -46 116 -63 145 -65 108 -177 129
-260 50 -87 -82 -98 -221 -31 -388 21 -53 24 -68 13 -74 -8 -5 -23 -2 -38 9
-53 36 -122 61 -230 82 -61 13 -113 20 -117 17 -11 -12 -23 -83 -30 -178 -10
-154 20 -263 93 -337 19 -19 33 -36 32 -38 -2 -1 -40 -13 -84 -25 -67 -19
-128 -42 -143 -56 -2 -1 13 -35 35 -76 50 -96 140 -216 197 -264 25 -21 46
-42 46 -46 0 -4 -26 -8 -57 -8 -32 0 -64 -4 -71 -9 -20 -12 50 -21 122 -16 59
5 60 5 31 -9 -16 -9 -42 -15 -56 -16 -48 0 -89 -12 -89 -25 0 -28 239 -60 525
-71 141 -5 188 -11 215 -24 19 -10 51 -21 70 -26 25 -6 -33 -11 -195 -15 -126
-4 -243 -11 -260 -16 l-30 -10 40 -7 c22 -4 278 -5 568 -2 499 5 607 11 607
35 0 5 14 11 30 15 17 3 43 14 58 25 22 16 55 22 172 30 291 22 420 42 420 66
0 7 -6 15 -12 18 -7 2 4 8 25 12 73 14 52 27 -66 37 -26 3 -24 6 36 49 35 26
90 78 121 117 59 73 156 228 156 249 0 17 -39 36 -130 63 -41 13 -77 25 -79
26 -2 2 12 34 32 71 52 100 69 178 69 313 0 63 -5 128 -11 144 -11 28 -13 29
-63 23 -79 -10 -204 -55 -253 -93 l-45 -34 -45 29 c-24 15 -78 41 -120 57 -41
16 -75 32 -75 35 0 4 52 114 116 245 164 339 177 385 132 474 -37 72 -118 105
-193 78z m95 -54 c73 -29 86 -88 46 -202 -29 -81 -230 -497 -245 -506 -26 -17
-241 73 -241 100 0 16 90 212 164 358 84 166 148 249 197 259 13 2 27 5 31 6
4 0 26 -6 48 -15z m-1374 -420 c41 -20 74 -72 105 -169 13 -38 24 -72 24 -75
4 -23 43 -85 67 -105 84 -71 171 -18 153 92 -4 21 -16 66 -28 101 -23 66 -18
93 17 100 40 8 73 -19 116 -96 24 -42 70 -104 102 -138 32 -33 58 -66 58 -72
0 -24 -26 -11 -79 38 -30 28 -57 48 -60 45 -11 -12 35 -79 67 -98 44 -26 40
-61 -8 -62 -8 0 -14 -7 -13 -15 4 -23 -79 -68 -158 -87 -64 -16 -74 -16 -163
1 -123 23 -220 79 -245 142 -9 22 -28 61 -43 86 -16 26 -28 53 -28 62 0 8 -5
18 -12 22 -8 5 -9 -8 -4 -50 4 -41 3 -55 -5 -50 -41 25 -53 187 -19 261 19 43
69 83 103 83 11 0 34 -7 53 -16z m872 -276 c-73 -91 -163 -257 -213 -393 -23
-62 -33 -75 -56 -75 -27 0 -24 21 18 119 73 171 136 273 219 351 30 29 58 50
61 47 3 -3 -10 -25 -29 -49z m92 6 c0 -3 -16 -25 -36 -47 -37 -45 -134 -234
-180 -354 -20 -54 -33 -73 -46 -73 -27 0 -23 21 30 138 83 187 182 342 217
342 8 0 15 -3 15 -6z m27 -61 c-4 -8 -59 -127 -82 -178 -8 -16 -32 -75 -54
-130 -36 -92 -60 -121 -75 -97 -13 22 131 334 177 385 24 25 43 37 34 20z m3
-204 c-54 -162 -71 -199 -95 -199 -27 0 -24 18 19 127 55 138 119 263 123 242
2 -8 -19 -85 -47 -170z m788 93 c2 -45 -2 -81 -10 -96 -27 -50 -91 -107 -160
-142 l-71 -36 20 34 c14 24 41 44 97 72 56 28 75 41 67 49 -8 8 -23 7 -56 -5
l-44 -17 30 48 c16 27 29 51 29 55 0 16 -60 -26 -79 -56 l-21 -33 0 38 c0 64
-24 39 -32 -33 -5 -44 -14 -70 -28 -84 l-20 -20 0 66 c0 36 -3 78 -6 94 -5 26
0 32 43 60 66 42 195 87 228 80 6 -2 11 -35 13 -74z m-2173 28 c44 -11 100
-33 125 -48 l45 -28 5 -122 c3 -67 2 -122 -1 -122 -11 0 -49 60 -49 79 0 39
-22 121 -31 115 -5 -3 -9 -26 -9 -51 l0 -45 -46 51 c-41 46 -74 65 -74 43 0
-5 26 -39 58 -76 32 -37 66 -80 76 -97 18 -30 18 -31 0 -21 -11 5 -39 13 -63
17 -39 6 -43 5 -38 -9 11 -28 -47 11 -99 66 l-44 47 0 104 c0 57 3 107 7 110
11 12 55 7 138 -13z m1840 -238 c-2 -9 -4 -27 -4 -39 -1 -27 -74 -67 -186
-103 -38 -12 -86 -28 -105 -36 -30 -11 -32 -13 -11 -13 42 -1 153 30 217 60
34 16 65 29 68 29 14 0 5 -48 -12 -63 -10 -9 -49 -28 -87 -42 -39 -15 -74 -31
-79 -36 -18 -16 20 -10 89 16 37 14 70 24 72 21 3 -2 -1 -17 -9 -32 -14 -30
-52 -54 -137 -87 -49 -19 -52 -22 -29 -25 15 -2 48 6 74 17 56 25 54 25 54 6
0 -8 -11 -22 -25 -31 -28 -18 -182 -73 -207 -74 -9 0 -20 -5 -24 -11 -9 -15
68 -4 144 21 31 10 58 17 60 15 2 -2 -5 -17 -17 -33 -24 -35 -123 -71 -274
-99 -85 -17 -88 -18 -46 -21 25 -2 79 4 120 13 135 30 129 30 92 -2 -22 -20
-56 -34 -110 -47 -43 -10 -94 -23 -113 -30 l-35 -11 50 -5 c54 -5 57 -4 -65
-42 -66 -20 -96 -23 -245 -23 -169 0 -211 6 -335 43 l-55 17 60 5 60 5 -40 12
c-22 6 -74 19 -115 29 -41 10 -91 24 -110 32 -33 13 -100 68 -100 82 0 4 42
-4 93 -16 94 -24 179 -32 162 -15 -6 5 -37 14 -70 19 -130 22 -219 52 -248 83
-35 38 -35 53 2 34 45 -23 180 -50 192 -38 6 6 -18 16 -68 27 -135 31 -169 46
-187 83 -17 36 -12 39 31 22 41 -16 160 -49 178 -49 21 0 19 20 -2 20 -10 1
-56 14 -103 30 -47 17 -93 30 -103 30 -19 0 -51 60 -45 86 2 12 7 12 28 1 75
-39 233 -78 265 -67 11 4 -25 17 -90 33 -129 32 -210 68 -218 97 -7 28 15 36
45 16 21 -14 129 -46 153 -46 18 1 -25 21 -97 46 -93 31 -118 48 -118 79 0 30
4 31 45 5 122 -75 363 -119 700 -127 266 -6 437 10 634 58 88 21 203 68 215
88 10 16 25 4 21 -17z m265 -263 c82 -19 170 -48 170 -56 0 -2 -20 -34 -45
-71 -48 -74 -91 -105 -178 -128 -43 -11 -62 -11 -126 1 -42 8 -94 17 -116 20
l-40 7 64 30 c67 31 72 31 184 9 32 -7 68 -11 80 -9 19 3 16 7 -20 26 -23 12
-49 22 -58 22 -8 0 -15 4 -15 9 0 5 36 17 80 27 91 20 106 27 95 44 -9 15 -45
10 -149 -19 -43 -12 -81 -19 -85 -16 -3 4 2 20 12 36 9 17 17 37 17 45 0 27
-18 14 -39 -29 -26 -54 -56 -82 -101 -95 -19 -5 -43 -13 -52 -17 -24 -10 -23
6 5 52 12 21 29 58 37 83 11 33 22 46 40 51 37 9 144 0 240 -22z m-1870 -24
c10 -9 21 -28 25 -43 3 -14 22 -52 40 -84 47 -79 23 -76 -54 8 -46 50 -62 63
-67 51 -3 -9 6 -31 21 -52 26 -33 26 -35 7 -35 -11 0 -39 7 -62 15 -58 20
-189 32 -174 15 11 -11 47 -22 127 -39 21 -5 40 -11 43 -14 3 -3 -22 -18 -56
-33 -70 -31 -69 -55 1 -31 70 23 139 29 194 15 56 -15 65 -32 20 -36 -44 -4
-135 -33 -135 -43 0 -23 -181 10 -250 46 -31 16 -88 86 -115 142 -9 18 -20 35
-25 38 -16 10 -11 32 8 38 154 49 259 67 355 63 55 -3 84 -9 97 -21z m461
-421 c24 -8 98 -24 164 -36 143 -24 298 -20 440 12 114 26 127 27 132 14 4
-12 -119 -50 -194 -60 -29 -4 -53 -10 -53 -15 0 -24 175 1 229 32 22 13 37 17
44 10 19 -19 -2 -36 -74 -60 -107 -35 -107 -35 -68 -39 23 -2 57 6 93 22 50
22 57 23 54 9 -12 -64 -372 -114 -580 -82 -160 25 -335 79 -255 79 36 0 34 13
-3 27 -20 8 -30 18 -30 32 0 22 19 28 36 12 12 -12 116 -42 123 -36 9 9 -13
22 -66 40 -55 17 -69 28 -58 45 8 13 15 13 66 -6z"/>
<path d="M620 3201 c-74 -39 -100 -122 -60 -188 55 -91 202 -81 231 16 22 74
-11 149 -77 177 -43 18 -52 18 -94 -5z"/>
<path d="M3126 2915 c-25 -25 -27 -64 -24 -426 4 -418 -6 -389 133 -389 127 0
134 6 137 125 3 82 5 90 24 93 12 2 96 -42 205 -105 l184 -108 129 -3 c70 -2
138 -1 151 2 46 12 50 44 50 432 0 291 -3 364 -14 377 -11 14 -33 17 -117 17
-125 0 -126 -1 -124 -128 3 -119 2 -122 -16 -122 -10 0 -53 20 -98 44 -45 24
-152 80 -238 125 l-158 81 -104 0 c-81 0 -108 -4 -120 -15z"/>
<path d="M3437 1986 c-55 -15 -85 -41 -126 -105 -84 -134 -381 -670 -381 -687
0 -40 16 -48 92 -52 92 -4 116 8 150 77 48 93 43 91 195 91 164 0 178 -6 218
-89 39 -82 47 -84 307 -80 186 4 208 6 227 23 40 36 51 15 -278 571 -62 105
-124 202 -138 217 -43 45 -166 61 -266 34z m-30 -363 c50 -74 67 -146 37 -157
-9 -3 -47 -6 -85 -6 -88 0 -93 10 -48 102 45 93 66 106 96 61z"/>
<path d="M2298 1056 c-37 -28 -22 -67 108 -285 l126 -210 -1 -116 c-2 -135 9
-179 49 -200 41 -21 368 -22 409 0 41 21 51 61 51 211 l0 132 141 221 c82 127
139 227 137 238 -3 16 -16 18 -96 21 -51 1 -99 -1 -108 -6 -9 -5 -48 -58 -87
-118 -40 -60 -79 -109 -87 -109 -9 0 -36 41 -66 100 -29 54 -62 107 -74 117
-20 16 -45 18 -254 18 -176 -1 -235 -4 -248 -14z"/>
<path d="M775 790 c17 -9 15 -10 -11 -7 l-31 3 2 -105 c2 -70 -1 -109 -9 -113
-6 -4 20 -8 58 -8 38 0 67 3 63 6 -3 4 0 13 8 21 17 16 20 83 5 83 -6 0 -8
-11 -4 -25 12 -47 -24 -67 -98 -56 -5 0 -8 16 -8 34 0 24 3 28 10 17 8 -13 10
-12 10 3 0 29 64 19 68 -10 2 -13 -1 -23 -7 -23 -6 0 -11 -5 -11 -11 0 -8 5
-8 15 1 18 15 19 42 3 58 -9 9 -9 12 1 12 8 0 10 7 6 19 -3 11 -1 22 5 26 8 5
6 14 -4 31 -19 28 -20 38 -3 28 8 -5 9 -4 2 3 -5 6 -28 13 -50 17 -30 4 -35 3
-20 -4z"/>
<path d="M1064 779 c-3 -5 3 -6 13 -3 16 5 16 4 2 -8 -9 -7 -16 -20 -17 -28 0
-8 -3 -26 -7 -40 l-6 -25 11 25 c6 14 18 29 26 33 8 5 12 12 9 17 -11 18 71
-11 88 -31 9 -11 17 -17 17 -12 0 5 -5 14 -12 21 -9 9 -9 12 0 12 17 0 32 -34
32 -73 0 -32 -15 -54 -50 -71 -8 -4 -5 1 7 11 13 10 25 34 28 53 l5 35 -10
-32 c-6 -18 -21 -39 -33 -47 -21 -14 -100 -19 -92 -6 7 11 -14 34 -34 37 -21
3 -21 2 -4 -24 18 -26 17 -27 -2 -20 -14 5 -11 -1 10 -18 23 -19 41 -25 80
-25 28 0 57 5 65 11 12 8 9 9 -10 4 -22 -5 -23 -5 -7 6 11 6 26 12 35 13 12 2
17 17 20 63 3 56 1 62 -27 88 -16 16 -28 31 -26 34 1 3 -21 7 -51 7 -30 1 -57
-2 -60 -7z"/>
<path d="M1510 741 c-7 -17 -16 -28 -21 -25 -5 3 -14 -6 -21 -20 -12 -28 -24
-33 -31 -13 -3 7 -6 5 -6 -5 -1 -10 -6 -18 -12 -18 -5 0 -7 -5 -3 -11 13 -22
22 -79 11 -72 -6 3 -7 1 -3 -5 12 -21 42 -13 54 13 14 31 15 46 2 25 -12 -18
-12 -2 0 25 6 14 9 15 10 5 1 -9 5 -6 10 8 12 29 26 28 34 -3 5 -21 9 -23 20
-13 7 7 11 22 9 33 -3 16 -1 15 7 -4 9 -20 12 -22 28 -10 15 13 16 12 4 -3 -8
-10 -19 -16 -25 -15 -13 2 -13 -4 -3 -43 l7 -25 -15 25 c-17 28 -22 19 -6 -11
6 -10 21 -19 33 -19 13 0 17 3 11 8 -11 7 -1 52 11 52 4 0 4 -10 1 -22 -4 -14
0 -11 8 7 7 17 16 41 19 55 6 23 5 22 -5 -2 -7 -16 -15 -28 -19 -28 -5 0 -1
17 8 38 19 44 35 108 24 96 -4 -5 -14 -29 -21 -53 -13 -40 -15 -42 -20 -20 -6
24 -6 23 -14 -6 l-9 -30 -13 30 c-7 17 -13 23 -14 16 0 -23 -18 0 -25 34 -5
24 -4 27 5 15 9 -12 11 -12 8 -1 -7 26 -25 22 -38 -8z"/>
</g>
</svg>
